<?xml version="1.0" encoding="utf-8"?>
<!-- Generator: Adobe Illustrator 22.0.1, SVG Export Plug-In . SVG Version: 6.00 Build 0)  -->
<svg version="1.1" id="Warstwa_1" xmlns="http://www.w3.org/2000/svg" xmlns:xlink="http://www.w3.org/1999/xlink" x="0px" y="0px"
	 viewBox="0 0 1301.9 1301.9" style="enable-background:new 0 0 1301.9 1301.9;" xml:space="preserve">
<style type="text/css">
	.st0{fill:none;stroke:#000000;stroke-width:8;stroke-linecap:round;stroke-linejoin:round;stroke-miterlimit:10;}
</style>
<g>
	<g>
		<g>
			<path d="M194.8,933.8c0,4.7-0.8,8.9-2.5,12.6c-1.7,3.7-4,6.8-7,9.5c-3,2.7-6.5,5-10.6,6.9c-4.1,1.9-8.6,3.4-13.3,4.5
				c-4.8,1.1-9.9,2-15.3,2.4c-5.4,0.5-10.9,0.7-16.4,0.7c-7.8,0-15.5-0.4-23.2-1.2c-7.7-0.8-14.9-1.8-21.6-3
				c-6.7-1.2-12.6-2.5-17.7-3.9c-5.1-1.4-9-2.7-11.6-3.9c-1-0.5-1.8-1.1-2.2-1.9c-0.5-0.8-0.7-1.5-0.7-2.3c0-0.9,0.2-1.6,0.7-2.2
				c0.5-0.6,1.2-0.9,2.1-0.9c0.4,0,0.9,0.1,1.5,0.3c2.8,1.2,6.9,2.4,12.2,3.8c5.3,1.4,11.3,2.7,18,3.9c6.7,1.2,13.9,2.2,21.5,3
				c7.6,0.8,15.1,1.2,22.6,1.2c7.3,0,14.2-0.5,20.7-1.4c6.5-1,12.3-2.6,17.3-4.8c5-2.3,8.9-5.3,11.9-9c2.9-3.7,4.4-8.3,4.4-13.8
				c0-4.6-1.3-8.4-3.8-11.4c-2.5-3-5.9-5.3-10.2-7.1c-4.3-1.8-9.3-3.1-15-4.1c-5.7-0.9-11.8-1.6-18.3-2.1s-13.1-0.7-19.9-0.7
				c-6.8,0-13.5-0.3-19.9-0.9s-12.5-1.4-18.3-2.5c-5.7-1.1-10.8-2.7-15-4.8c-4.3-2.1-7.7-4.9-10.2-8.2c-2.5-3.4-3.8-7.6-3.8-12.7
				c0-4.7,0.9-8.8,2.6-12.4c1.7-3.6,4.1-6.7,7.2-9.3c3.1-2.6,6.7-4.7,10.8-6.5c4.2-1.7,8.7-3.1,13.6-4.1c4.9-1,10.1-1.8,15.5-2.2
				c5.4-0.4,10.8-0.7,16.3-0.7c6.8,0,13.4,0.3,19.9,0.9c6.5,0.6,12.7,1.5,18.4,2.5c5.7,1.1,10.9,2.2,15.5,3.5
				c4.6,1.3,8.2,2.6,11,3.9c0.6,0.3,1,0.7,1.3,1.3c0.3,0.5,0.4,1.1,0.4,1.7c0,1-0.3,2-1,2.8c-0.7,0.9-1.7,1.3-2.9,1.3
				c-0.7,0-1.3-0.1-1.9-0.4c-3.9-1.6-8.1-3-12.8-4.3c-4.7-1.3-9.6-2.3-14.9-3.2c-5.2-0.9-10.6-1.5-16.2-2
				c-5.6-0.5-11.1-0.7-16.5-0.7c-7.6,0-14.8,0.4-21.7,1.3c-6.9,0.9-13,2.4-18.3,4.5c-5.3,2.1-9.5,4.9-12.6,8.5
				c-3.1,3.5-4.7,8-4.7,13.3c0,4.1,1.3,7.4,3.8,10c2.5,2.6,5.9,4.6,10.2,6.2c4.3,1.6,9.3,2.7,15,3.5c5.7,0.8,11.8,1.2,18.3,1.2
				s13.1,0,19.9,0c6.8,0,13.5,0.4,19.9,1.2s12.5,1.8,18.3,3.2c5.7,1.4,10.8,3.3,15,5.7c4.3,2.4,7.7,5.6,10.2,9.4
				C193.6,923.5,194.8,928.2,194.8,933.8z"/>
			<path d="M355.4,850.9c0,1.5-0.5,2.4-1.5,2.7c-1,0.3-2.3,0.5-3.9,0.5H289v106.1c0,1.1,0,2.1-0.1,3.1c-0.1,0.9-0.3,1.8-0.6,2.6
				c-0.3,0.8-0.8,1.4-1.4,1.8c-0.6,0.4-1.4,0.7-2.5,0.7c-1.9,0-3.1-0.8-3.8-2.5c-0.6-1.6-0.9-3.5-0.9-5.6V854.1h-61
				c-1.6,0-3-0.2-4.1-0.5c-1.1-0.3-1.7-1.2-1.7-2.7c0-1.1,0.3-1.9,0.8-2.5c0.5-0.6,1.1-0.9,1.9-1.2c0.8-0.2,1.6-0.3,2.6-0.3
				c1,0,1.9,0,2.8,0h126.5c1.1,0,2.1,0,3.1,0c0.9,0,1.8,0.1,2.5,0.3c0.7,0.2,1.3,0.6,1.7,1.2C355.2,848.9,355.4,849.8,355.4,850.9z"
				/>
			<path d="M450.1,963.4c11.8,0,21.7-1.1,29.6-3.4c7.9-2.3,14.3-5.8,19-10.4c4.8-4.6,8.1-10.5,10.1-17.5c2-7,2.9-15.3,2.9-24.8
				v-52.7c0-1.9,0.3-3.6,0.9-5.2c0.6-1.6,1.8-2.4,3.6-2.4c1.1,0,1.9,0.2,2.6,0.7c0.6,0.4,1.1,1,1.4,1.7c0.3,0.7,0.5,1.5,0.7,2.5
				c0.1,0.9,0.2,1.8,0.2,2.8v52.7c0,11.3-1.5,21-4.4,29c-2.9,8-7.4,14.6-13.2,19.7c-5.9,5.1-13.3,8.8-22.2,11.1
				c-8.9,2.3-19.3,3.5-31.1,3.5c-11.9,0-22.3-1.2-31.2-3.5c-8.9-2.3-16.3-6-22.2-11.1c-6-5.1-10.4-11.6-13.3-19.7
				c-2.9-8-4.4-17.7-4.4-29v-52.7c0-0.9,0.1-1.9,0.2-2.8c0.1-0.9,0.3-1.7,0.7-2.5c0.4-0.7,0.9-1.3,1.5-1.7c0.6-0.4,1.5-0.7,2.6-0.7
				c1.8,0,3,0.8,3.5,2.4c0.5,1.6,0.8,3.3,0.8,5.2v52.7c0,9.5,1,17.8,3,24.8c2,7,5.4,12.8,10.1,17.5c4.8,4.6,11.1,8.1,19,10.4
				C428.3,962.2,438.2,963.4,450.1,963.4z"/>
			<path d="M711.2,907.4c0,11.6-1.5,21.3-4.6,29.1c-3.1,7.8-7.6,14-13.6,18.7c-6,4.7-13.5,8.1-22.5,10.1c-9,2-19.4,3-31.2,3h-75
				c-1.1,0-1.9,0-2.5,0s-1-0.1-1.3-0.4c-0.3-0.3-0.5-0.6-0.5-1.1c0-0.5-0.1-1.2-0.1-2.2V850.9c0-1.1,0-1.9,0.1-2.5
				c0-0.5,0.2-0.9,0.5-1.1c0.3-0.2,0.7-0.3,1.4-0.3c0.6,0,1.5,0,2.6,0h74.8c11.8,0,22.2,1,31.2,3c9,2,16.5,5.4,22.5,10.2
				c6,4.8,10.6,11,13.6,18.7C709.7,886.6,711.2,896.1,711.2,907.4z M702,907.4c0-9.4-1.1-17.4-3.2-24.1c-2.1-6.7-5.6-12.2-10.5-16.5
				c-4.9-4.3-11.3-7.5-19.3-9.5c-8-2-17.9-3-29.7-3h-70v106.9h70c11.8,0,21.8-1,29.7-3c8-2,14.4-5.2,19.3-9.5
				c4.9-4.3,8.4-9.9,10.5-16.7C700.9,925.1,702,916.9,702,907.4z"/>
			<path d="M777.7,854.1h-38.9c-0.9,0-1.9,0-2.8,0c-0.9,0-1.8-0.1-2.6-0.3c-0.8-0.2-1.4-0.6-1.9-1c-0.5-0.5-0.7-1.1-0.7-2
				c0-1.1,0.3-1.9,0.8-2.4c0.5-0.5,1.1-0.9,1.9-1.1s1.6-0.3,2.6-0.3c0.9,0,1.9,0,2.7,0h87.1c1.1,0,2.1,0,3.1,0
				c0.9,0,1.8,0.1,2.5,0.3c0.7,0.2,1.3,0.6,1.7,1.1c0.4,0.5,0.7,1.2,0.7,2.2c0,1-0.2,1.8-0.7,2.2c-0.4,0.5-1,0.8-1.7,1
				c-0.7,0.2-1.5,0.3-2.5,0.3c-0.9,0-2,0-3.1,0H787v107h38.9c1.1,0,2.1,0,3.1,0c0.9,0,1.8,0.1,2.5,0.3c0.7,0.2,1.3,0.6,1.7,1.1
				c0.4,0.5,0.7,1.2,0.7,2.2c0,1-0.2,1.8-0.7,2.2c-0.4,0.5-1,0.8-1.7,1c-0.7,0.2-1.5,0.3-2.5,0.3c-0.9,0-2,0-3.1,0h-87.1
				c-0.9,0-1.8,0-2.7,0c-0.9,0-1.8-0.1-2.6-0.3s-1.4-0.6-1.9-1.1c-0.5-0.5-0.8-1.3-0.8-2.4c0-0.9,0.2-1.5,0.7-2
				c0.5-0.5,1.1-0.8,1.9-1c0.8-0.2,1.6-0.3,2.6-0.3c0.9,0,1.9,0,2.8,0h38.9V854.1z"/>
			<path d="M1013.4,907.6c0,10.6-1.6,19.9-4.7,27.7c-3.2,7.9-8,14.4-14.6,19.7c-6.6,5.2-14.9,9.1-25,11.7c-10.1,2.6-22,3.9-35.8,3.9
				c-13.8,0-25.7-1.3-35.8-3.9c-10.1-2.6-18.4-6.5-24.9-11.7s-11.4-11.8-14.5-19.7c-3.2-7.9-4.7-17.1-4.7-27.7
				c0-10.6,1.6-19.8,4.7-27.7c3.2-7.9,8-14.4,14.5-19.7s14.8-9.1,24.9-11.7c10.1-2.6,22-3.9,35.8-3.9c13.8,0,25.7,1.3,35.8,3.9
				c10.1,2.6,18.4,6.5,25,11.7c6.6,5.2,11.4,11.8,14.6,19.7C1011.8,887.7,1013.4,897,1013.4,907.6z M862.6,907.6
				c0,10.2,1.5,18.8,4.4,25.8c2.9,7,7.3,12.8,13.1,17.3c5.8,4.5,13.2,7.7,22.1,9.7c8.9,2,19.3,3,31.2,3c11.9,0,22.3-1,31.2-3
				c8.9-2,16.2-5.2,22.1-9.7s10.3-10.2,13.2-17.3c2.9-7,4.4-15.7,4.4-25.8c0-10.1-1.5-18.7-4.4-25.8c-2.9-7.1-7.3-12.9-13.2-17.3
				s-13.3-7.7-22.1-9.7c-8.9-2-19.3-3-31.2-3c-11.9,0-22.3,1-31.2,3c-8.9,2-16.2,5.2-22.1,9.7c-5.8,4.5-10.2,10.2-13.1,17.3
				C864,888.9,862.6,897.5,862.6,907.6z"/>
		</g>
	</g>
	<g>
		<path d="M1029.3,775c-47.6,0-92.3-13.3-126.1-37.4c-34.1-24.4-52.9-56.9-52.9-91.6V396c0-34.7,18.8-67.3,52.9-91.6
			c33.7-24.1,78.5-37.4,126.1-37.4c47.6,0,92.3,13.3,126.1,37.4c34.1,24.4,52.9,56.9,52.9,91.6v250c0,34.7-18.8,67.3-52.9,91.6
			C1121.7,761.7,1076.9,775,1029.3,775z M1029.3,275c-94.3,0-171,54.3-171,121v250c0,66.7,76.7,121,171,121s171-54.3,171-121V396
			C1200.3,329.3,1123.6,275,1029.3,275z"/>
	</g>
	<path d="M1254.3,217H54.3c-2.2,0-4,1.8-4,4v550c0,2.2,1.8,4,4,4h175c47.6,0,92.3-13.3,126.1-37.4c34.1-24.4,52.9-56.9,52.9-91.6
		c0-34.7-18.8-67.3-52.9-91.6c-22.9-16.4-51-27.8-81.5-33.4c30.6-5.6,58.6-17,81.5-33.4c34.1-24.4,52.9-56.9,52.9-91.6
		s-18.8-67.3-52.9-91.6c-33.7-24.1-78.5-37.4-126.1-37.4h-125c-2.2,0-4,1.8-4,4s1.8,4,4,4h125c94.3,0,171,54.3,171,121
		s-76.7,121-171,121c-2.2,0-4,1.8-4,4s1.8,4,4,4c94.3,0,171,54.3,171,121s-76.7,121-171,121h-171V225h1192v742h-196
		c-2.2,0-4,1.8-4,4s1.8,4,4,4h200c2.2,0,4-1.8,4-4V221C1258.3,218.8,1256.5,217,1254.3,217z"/>
	<g>
		<path class="st0" d="M454.3,396"/>
	</g>
	<g>
		<path d="M804.3,775h-350c-2.2,0-4-1.8-4-4V646c0-34.7,18.8-67.3,52.9-91.6C537,530.3,581.8,517,629.3,517c94.3,0,171-54.3,171-121
			s-76.7-121-171-121s-171,54.3-171,121c0,2.2-1.8,4-4,4s-4-1.8-4-4c0-34.7,18.8-67.3,52.9-91.6C537,280.3,581.8,267,629.3,267
			s92.3,13.3,126.1,37.4c34.1,24.4,52.9,56.9,52.9,91.6s-18.8,67.3-52.9,91.6c-33.7,24.1-78.5,37.4-126.1,37.4
			c-94.3,0-171,54.3-171,121v121h346c2.2,0,4,1.8,4,4S806.5,775,804.3,775z"/>
	</g>
</g>
</svg>
